<svg width="75" height="75" viewBox="0 0 75 75" fill="none" xmlns="http://www.w3.org/2000/svg">
<circle cx="37.5" cy="37.5" r="37.5" fill="white"/>
<path d="M45.5656 38.4455L33.4459 50.5649C33.1656 50.8455 32.7914 51 32.3924 51C31.9934 51 31.6192 50.8455 31.3389 50.5649L30.4464 49.6726C29.8656 49.0912 29.8656 48.1462 30.4464 47.5656L40.6236 37.3884L30.4351 27.1999C30.1548 26.9194 30 26.5454 30 26.1467C30 25.7475 30.1548 25.3735 30.4351 25.0927L31.3276 24.2006C31.6081 23.9201 31.9821 23.7656 32.3811 23.7656C32.7801 23.7656 33.1543 23.9201 33.4346 24.2006L45.5656 36.3312C45.8466 36.6126 46.0009 36.9883 46 37.3878C46.0009 37.7887 45.8466 38.1643 45.5656 38.4455Z" fill="url(#paint0_linear_1_84)"/>
<defs>
<linearGradient id="paint0_linear_1_84" x1="30" y1="37.3828" x2="46" y2="37.3828" gradientUnits="userSpaceOnUse">
<stop stop-color="#3CA4DC"/>
<stop offset="1" stop-color="#334EA0"/>
</linearGradient>
</defs>
</svg>
