<svg width="178" height="269" viewBox="0 0 178 269" fill="none" xmlns="http://www.w3.org/2000/svg">
<path d="M174.999 86.0004C174.999 133.497 136.496 172 88.9996 172C86.2045 172 83.4405 171.867 80.715 171.605C37.105 167.438 3 130.701 3 85.9996C2.99927 38.503 41.503 0 88.9996 0C98.906 0 108.423 1.67477 117.279 4.75873C150.885 16.4546 174.999 48.4102 174.999 86.0004Z" fill="url(#paint0_linear_1_31)"/>
<path d="M80.715 171.605C37.105 167.438 3 130.701 3 85.9996C2.99927 38.503 41.5031 0 88.9996 0C98.9061 0 108.424 1.67477 117.279 4.75873C64.4956 -1.76911 16.4874 53.8096 52.1423 107.32C84.7851 140.086 103.745 115.385 116.587 81.8432C121.526 78.7534 114.801 59.733 116.972 54.3256C153.178 83.0906 142.621 159.348 80.715 171.605Z" fill="url(#paint1_linear_1_31)"/>
<path d="M9.09118 68.6695C13.9471 53.0313 29.8872 14.6451 71.2115 5.48535C71.2115 5.48535 31.6687 30.0141 26.3236 72.3775C25.5225 78.7254 18.4867 82.1671 13.0249 78.835L12.9109 78.7653C9.47576 76.6704 7.89823 72.511 9.09118 68.6695Z" fill="url(#paint2_radial_1_31)"/>
<path d="M168.6 102.909C163.743 118.547 147.804 156.933 106.479 166.093C106.479 166.093 146.022 141.564 151.367 99.2006C152.169 92.8528 159.204 89.4111 164.666 92.7432L164.781 92.8129C168.215 94.9078 169.793 99.0671 168.6 102.909Z" fill="url(#paint3_radial_1_31)"/>
<path d="M89 43.2285C112.622 43.2285 131.771 62.3781 131.771 86C131.771 109.622 112.622 128.771 89 128.771C81.6609 128.77 74.7542 126.921 68.7188 123.664L43.8154 131.184L51.334 106.279C48.0779 100.244 46.2286 93.3382 46.2285 86C46.2285 62.3781 65.3781 43.2286 89 43.2285Z" fill="white"/>
<path d="M71.8943 86.0001C71.8943 89.28 69.2356 91.938 65.9564 91.938C62.6773 91.938 60.0186 89.2793 60.0186 86.0001C60.0186 82.7203 62.6773 80.0623 65.9564 80.0623C69.2356 80.0623 71.8943 82.7203 71.8943 86.0001ZM89.0005 80.0615C85.7206 80.0615 83.0626 82.7203 83.0626 85.9994C83.0626 89.2793 85.7214 91.9373 89.0005 91.9373C92.2797 91.9373 94.9384 89.2786 94.9384 85.9994C94.9384 82.7203 92.2804 80.0615 89.0005 80.0615ZM112.045 80.0615C108.765 80.0615 106.107 82.7203 106.107 85.9994C106.107 89.2793 108.765 91.9373 112.045 91.9373C115.324 91.9373 117.982 89.2786 117.982 85.9994C117.983 82.7203 115.324 80.0615 112.045 80.0615Z" fill="url(#paint4_linear_1_31)"/>
<path d="M159.252 228.682V238.719H175.438V248.049H159.252V258.934H177.559V268.618H147.165V218.998H177.559V228.682H159.252Z" fill="white"/>
<path d="M136.557 238.789V248.826H105.456V238.789H136.557Z" fill="white"/>
<path d="M101.112 218.998L83.5115 268.618H68.3853L50.7852 218.998H63.6495L75.9484 256.46L88.318 218.998H101.112Z" fill="white"/>
<path d="M39.7634 225.076C37.6429 225.076 35.8994 224.464 34.5328 223.239C33.2134 221.966 32.5537 220.411 32.5537 218.574C32.5537 216.689 33.2134 215.134 34.5328 213.908C35.8994 212.636 37.6429 212 39.7634 212C41.8368 212 43.5332 212.636 44.8526 213.908C46.2191 215.134 46.9024 216.689 46.9024 218.574C46.9024 220.411 46.2191 221.966 44.8526 223.239C43.5332 224.464 41.8368 225.076 39.7634 225.076ZM45.7715 229.176V268.617H33.6846V229.176H45.7715Z" fill="white"/>
<path d="M12.0868 259.288H27.9199V268.618H0V218.998H12.0868V259.288Z" fill="white"/>
<defs>
<linearGradient id="paint0_linear_1_31" x1="130.61" y1="160.348" x2="52.4467" y2="20.6882" gradientUnits="userSpaceOnUse">
<stop stop-color="#3771B9"/>
<stop offset="1" stop-color="#1E579E"/>
</linearGradient>
<linearGradient id="paint1_linear_1_31" x1="41.3451" y1="39.685" x2="118.934" y2="129.343" gradientUnits="userSpaceOnUse">
<stop stop-color="#3CA4DC"/>
<stop offset="0.9947" stop-color="#148ED0"/>
</linearGradient>
<radialGradient id="paint2_radial_1_31" cx="0" cy="0" r="1" gradientUnits="userSpaceOnUse" gradientTransform="translate(32.2251 23.0091) scale(52.4877 52.4877)">
<stop stop-color="white"/>
<stop offset="1" stop-color="#3771B9" stop-opacity="0"/>
</radialGradient>
<radialGradient id="paint3_radial_1_31" cx="0" cy="0" r="1" gradientUnits="userSpaceOnUse" gradientTransform="translate(145.466 148.569) rotate(180) scale(52.4877 52.4877)">
<stop stop-color="white"/>
<stop offset="1" stop-color="#3CA4DC" stop-opacity="0"/>
</radialGradient>
<linearGradient id="paint4_linear_1_31" x1="50.3207" y1="72.4208" x2="122.159" y2="97.6404" gradientUnits="userSpaceOnUse">
<stop stop-color="#3CA4DC"/>
<stop offset="1" stop-color="#3771B9"/>
</linearGradient>
</defs>
</svg>
